<svg width="90" height="90" viewBox="0 0 90 90" fill="none" xmlns="http://www.w3.org/2000/svg">
<path d="M20.6267 75C23.7333 75 26.2517 77.5181 26.2517 80.625C26.2517 83.7315 23.7333 86.25 20.6267 86.25C17.5201 86.25 15.0017 83.7315 15.0017 80.625C15.0017 77.5181 17.5201 75 20.6267 75ZM69.3769 75C72.4834 75 75.0019 77.5181 75.0019 80.625C75.0019 83.7315 72.4834 86.25 69.3769 86.25C66.27 86.25 63.7519 83.7315 63.7519 80.625C63.7519 77.5181 66.27 75 69.3769 75ZM8.14511 6.58995L22.4993 20.945V63.7474L75.0019 63.75V71.25H18.7517C16.6806 71.25 15.0017 69.5707 15.0017 67.5L14.9993 24.05L2.8418 11.8933L8.14511 6.58995ZM60.0019 11.2499C62.0726 11.2499 63.7519 12.9288 63.7519 14.9999L63.7493 22.4975L74.976 22.4999C77.0614 22.4999 78.7519 24.2086 78.7519 26.2326V56.2672C78.7519 58.3286 77.0644 60 74.976 60H30.0274C27.9421 60 26.2517 58.2911 26.2517 56.2672V26.2326C26.2517 24.1711 27.939 22.4999 30.0274 22.4999L41.2493 22.4975L41.2519 14.9999C41.2519 12.9288 42.9308 11.2499 45.0019 11.2499H60.0019ZM37.4993 29.9975L33.7517 29.9999V52.5L37.4993 52.4974V29.9975ZM59.9993 29.9975H44.9993V52.4974H59.9993V29.9975ZM71.2519 29.9999L67.4993 29.9975V52.4974L71.2519 52.5V29.9999ZM56.2519 18.7499H48.7519V22.4999H56.2519V18.7499Z" fill="#583D21"/>
</svg>
