<svg width="90" height="90" viewBox="0 0 90 90" fill="none" xmlns="http://www.w3.org/2000/svg">
<path d="M21.2847 15.9625C36.0147 3.89355 57.7852 4.73385 71.535 18.4835C86.1795 33.1282 86.1795 56.8717 71.535 71.5166C56.8901 86.1611 33.1465 86.1611 18.5018 71.5166C9.03495 62.0498 5.68785 48.7804 8.46041 36.625L8.74781 35.4523L16.0019 37.3618C13.3863 47.3363 15.9873 58.3954 23.8051 66.2134C35.5208 77.9287 54.5156 77.9287 66.2314 66.2134C77.9471 54.4976 77.9471 35.5025 66.2314 23.7868C55.6654 13.2206 39.1781 12.1839 27.4502 20.6766L26.6207 21.2994L30.4342 25.1126L13.1985 29.0901L17.176 11.8544L21.2847 15.9625ZM48.7684 22.5V30H58.1434V37.5H37.5184C36.4828 37.5 35.6433 38.3396 35.6433 39.375C35.6433 40.2956 36.3066 41.061 37.1813 41.2196L37.5184 41.25H52.5184C57.696 41.25 61.8934 45.4474 61.8934 50.625C61.8934 55.8026 57.696 60 52.5184 60H48.7684V67.5H41.2684V60H31.8933V52.5H52.5184C53.5537 52.5 54.3934 51.6604 54.3934 50.625C54.3934 49.7044 53.73 48.939 52.8555 48.7804L52.5184 48.75H37.5184C32.3406 48.75 28.1433 44.5526 28.1433 39.375C28.1433 34.1973 32.3406 30 37.5184 30H41.2684V22.5H48.7684Z" fill="#583D21"/>
</svg>
