<svg width="90" height="90" viewBox="0 0 90 90" fill="none" xmlns="http://www.w3.org/2000/svg">
<path d="M45 48.75L67.5 82.5H22.5L45 48.75ZM45 62.25L36.525 75H53.475L45 62.25ZM41.0224 39.6023C38.826 37.4057 38.826 33.8442 41.0224 31.6475C43.2191 29.4508 46.7809 29.4508 48.9776 31.6475C51.174 33.8442 51.174 37.4057 48.9776 39.6023C46.7809 41.799 43.2191 41.799 41.0224 39.6023ZM19.8093 10.4343L25.1126 15.7376C14.1291 26.7211 14.1291 44.529 25.1126 55.5124L19.8093 60.8156C5.89688 46.9031 5.89688 24.3467 19.8093 10.4343ZM70.1906 10.4343C84.1031 24.3467 84.1031 46.9031 70.1906 60.8156L64.8874 55.5124C75.8708 44.529 75.8708 26.7211 64.8874 15.7376L70.1906 10.4343ZM30.4159 21.0409L35.7192 26.3442C30.5936 31.4698 30.5936 39.78 35.7192 44.9059L30.4159 50.2091C22.3614 42.1545 22.3614 29.0954 30.4159 21.0409ZM59.5841 21.0409C67.6388 29.0954 67.6388 42.1545 59.5841 50.2091L54.2809 44.9059C59.4064 39.78 59.4064 31.4698 54.2809 26.3442L59.5841 21.0409Z" fill="#583D21"/>
</svg>
