<svg width="88" height="88" viewBox="0 0 88 88" fill="none" xmlns="http://www.w3.org/2000/svg">
<rect width="88" height="88" rx="20" fill="#1A1918"/>
<path d="M24.65 61L9.55 26H18.3L31.5 57H26.35L39.75 26H47.8L32.65 61H24.65ZM62.2223 61.6C59.4223 61.6 56.7389 61.2333 54.1723 60.5C51.6056 59.7333 49.5389 58.75 47.9723 57.55L50.7223 51.45C52.2223 52.5167 53.9889 53.4 56.0223 54.1C58.0889 54.7667 60.1723 55.1 62.2723 55.1C63.8723 55.1 65.1556 54.95 66.1223 54.65C67.1223 54.3167 67.8556 53.8667 68.3223 53.3C68.7889 52.7333 69.0223 52.0833 69.0223 51.35C69.0223 50.4167 68.6556 49.6833 67.9223 49.15C67.1889 48.5833 66.2223 48.1333 65.0223 47.8C63.8223 47.4333 62.4889 47.1 61.0223 46.8C59.5889 46.4667 58.1389 46.0667 56.6723 45.6C55.2389 45.1333 53.9223 44.5333 52.7223 43.8C51.5223 43.0667 50.5389 42.1 49.7723 40.9C49.0389 39.7 48.6723 38.1667 48.6723 36.3C48.6723 34.3 49.2056 32.4833 50.2723 30.85C51.3723 29.1833 53.0056 27.8667 55.1723 26.9C57.3723 25.9 60.1223 25.4 63.4223 25.4C65.6223 25.4 67.7889 25.6667 69.9223 26.2C72.0556 26.7 73.9389 27.4667 75.5723 28.5L73.0723 34.65C71.4389 33.7167 69.8056 33.0333 68.1723 32.6C66.5389 32.1333 64.9389 31.9 63.3723 31.9C61.8056 31.9 60.5223 32.0833 59.5223 32.45C58.5223 32.8167 57.8056 33.3 57.3723 33.9C56.9389 34.4667 56.7223 35.1333 56.7223 35.9C56.7223 36.8 57.0889 37.5333 57.8223 38.1C58.5556 38.6333 59.5223 39.0667 60.7223 39.4C61.9223 39.7333 63.2389 40.0667 64.6723 40.4C66.1389 40.7333 67.5889 41.1167 69.0223 41.55C70.4889 41.9833 71.8223 42.5667 73.0223 43.3C74.2223 44.0333 75.1889 45 75.9223 46.2C76.6889 47.4 77.0723 48.9167 77.0723 50.75C77.0723 52.7167 76.5223 54.5167 75.4223 56.15C74.3223 57.7833 72.6723 59.1 70.4723 60.1C68.3056 61.1 65.5556 61.6 62.2223 61.6Z" fill="white"/>
</svg>
