<svg width="48" height="48" viewBox="0 0 48 48" fill="none" xmlns="http://www.w3.org/2000/svg">
<path d="M44 34.0044C43.998 39.7462 39.9632 44.5452 34.5744 45.7232L33.2984 41.8952C35.7064 41.5022 37.753 40.0342 38.9298 38H34C31.7908 38 30 36.2092 30 34V26C30 23.7908 31.7908 22 34 22H39.8762C38.892 14.1074 32.1592 8 24 8C15.8408 8 9.10798 14.1074 8.12378 22H14C16.2091 22 18 23.7908 18 26V34C18 36.2092 16.2091 38 14 38H8C5.79086 38 4 36.2092 4 34V24C4 12.9543 12.9543 4 24 4C35.0456 4 44 12.9543 44 24V25.9974V26V34V34.0044ZM40 34V26H34V34H40ZM8 26V34H14V26H8Z" fill="white"/>
</svg>
