<svg width="90" height="90" viewBox="0 0 90 90" fill="none" xmlns="http://www.w3.org/2000/svg">
<path d="M71.25 75H18.75V78.75C18.75 80.8211 17.0711 82.5 15 82.5H11.25C9.17895 82.5 7.5 80.8211 7.5 78.75V50.625L2.84049 49.4603C1.17111 49.0429 0 47.5429 0 45.822V43.125C0 42.0896 0.839468 41.25 1.875 41.25H7.5L16.8019 19.5456C17.9837 16.788 20.6953 15 23.6955 15H66.3045C69.3049 15 72.0161 16.788 73.1981 19.5456L82.5 41.25H88.125C89.1604 41.25 90 42.0896 90 43.125V45.822C90 47.5429 88.8289 49.0429 87.1594 49.4603L82.5 50.625V78.75C82.5 80.8211 80.8211 82.5 78.75 82.5H75C72.9289 82.5 71.25 80.8211 71.25 78.75V75ZM75 67.5V48.75H15V67.5H75ZM20.5389 41.25H69.4613C69.9383 41.25 70.4108 41.1589 70.854 40.9819C72.7766 40.2128 73.7122 38.0302 72.9427 36.1073L67.5 22.5H22.5L17.0571 36.1073C16.8799 36.5502 16.7889 37.0229 16.7889 37.5C16.7889 39.5711 18.4678 41.25 20.5389 41.25ZM18.75 52.5C27.4377 52.5 33.295 55.3305 36.322 60.9911C36.8103 61.9042 36.4657 63.0401 35.5526 63.5284C35.2807 63.6739 34.977 63.75 34.6686 63.75H22.5C20.4289 63.75 18.75 62.0711 18.75 60V52.5ZM71.25 52.5V60C71.25 62.0711 69.5711 63.75 67.5 63.75H55.3312C55.023 63.75 54.7193 63.6739 54.4474 63.5284C53.5343 63.0401 53.19 61.9042 53.6783 60.9911C56.7052 55.3305 62.5624 52.5 71.25 52.5Z" fill="#583D21"/>
</svg>
