<svg width="90" height="90" viewBox="0 0 90 90" fill="none" xmlns="http://www.w3.org/2000/svg">
<path d="M77.9513 33.8362C77.4825 33.9375 71.19 35.4037 63.1275 40.4887C61.9162 34.6125 58.3312 23.61 47.7225 12.42L45 9.54749L42.2775 12.4237C31.6313 23.655 28.0613 34.6875 26.8612 40.6012C18.7688 35.43 12.525 33.945 12.0675 33.84L7.5 32.82V37.5C7.5 64.8375 22.2188 82.5 45 82.5C67.4287 82.5 82.5 64.4175 82.5 37.5V32.8425L77.9513 33.8362ZM33.7462 45.1425C33.7537 45.0187 34.3162 33.5175 45 20.6475C55.5525 33.3975 56.25 45 56.25 45V45.4687C52.0446 48.9634 48.257 52.9322 44.9625 57.2962C41.6587 53.0093 37.8977 49.095 33.7462 45.6225V45.1425ZM45 75C25.065 75 16.6913 59.265 15.2363 42.885C21.4425 45.5775 32.5463 51.9825 41.8875 65.8462L45.0412 70.53L48.135 65.805C57.2325 51.9 68.4787 45.5137 74.745 42.8475C73.2525 58.7025 64.89 75 45 75Z" fill="#583D21"/>
</svg>
